<mxfile host="app.diagrams.net" modified="2023-12-26T18:06:05.637Z" agent="Mozilla/5.0 (X11; Linux x86_64) AppleWebKit/537.36 (KHTML, like Gecko) Chrome/120.0.0.0 Safari/537.36" version="22.1.11" etag="mQroPy8qWNYvCp9_OzGf" type="github">
  <diagram name="Page-1" id="LkMnsq7wNRQ8xAFgcKTD">
    <mxGraphModel>
      <root>
        <mxCell id="0" />
        <mxCell id="1" parent="0" />
      </root>
    </mxGraphModel>
  </diagram>
</mxfile>
